<svg xmlns="http://www.w3.org/2000/svg" width="19.045" height="21.426" viewBox="0 0 19.045 21.426">
    <path d="m24.2 10.975-.4 10.445a3.77 3.77 0 0 1-4 3.328h-7.6a3.771 3.771 0 0 1-4-3.324l-.4-10.449a.929.929 0 0 1 .967-.891.951.951 0 0 1 1.033.834l.4 10.448a1.892 1.892 0 0 0 2 1.659h7.6a1.891 1.891 0 0 0 2-1.663l.4-10.444a.951.951 0 0 1 1.033-.834.929.929 0 0 1 .967.891zM25.523 7.5a.939.939 0 0 1-1 .863H7.478a.939.939 0 0 1-1-.863.939.939 0 0 1 1-.863h3.1a1.222 1.222 0 0 0 1.273-.99 2.863 2.863 0 0 1 2.984-2.324h2.33a2.863 2.863 0 0 1 2.984 2.324 1.222 1.222 0 0 0 1.273.99h3.1a.939.939 0 0 1 1 .863zm-11.936-.863h4.828a2.547 2.547 0 0 1-.255-.814.957.957 0 0 0-.994-.776h-2.33a.957.957 0 0 0-.994.776 2.547 2.547 0 0 1-.256.814zm1.007 13.072v-7.347a1.011 1.011 0 0 0-2 0v7.35a1.011 1.011 0 0 0 2 0zm4.814 0v-7.347a1.011 1.011 0 0 0-2 0v7.35a1.011 1.011 0 0 0 2 0z" transform="translate(-6.478 -3.322)" style="fill:#fff"/>
</svg>
