<svg xmlns="http://www.w3.org/2000/svg" width="17.777" height="20" viewBox="0 0 17.777 20">
    <path d="m16.542 7.144-.373 9.75A3.519 3.519 0 0 1 12.435 20H5.341a3.52 3.52 0 0 1-3.734-3.1l-.373-9.753a.867.867 0 0 1 .9-.832.887.887 0 0 1 .964.779l.373 9.752a1.766 1.766 0 0 0 1.867 1.549h7.094a1.765 1.765 0 0 0 1.867-1.552l.373-9.749a.887.887 0 0 1 .964-.779.867.867 0 0 1 .9.832zm1.235-3.245a.876.876 0 0 1-.933.805H.933A.876.876 0 0 1 0 3.899a.876.876 0 0 1 .933-.805h2.894a1.14 1.14 0 0 0 1.188-.924A2.672 2.672 0 0 1 7.8 0h2.175a2.672 2.672 0 0 1 2.785 2.17 1.14 1.14 0 0 0 1.188.924h2.894a.876.876 0 0 1 .933.805zM6.636 3.094h4.506a2.377 2.377 0 0 1-.238-.76.893.893 0 0 0-.928-.725H7.802a.893.893 0 0 0-.928.725 2.378 2.378 0 0 1-.239.76zm.94 12.2V8.438a.944.944 0 0 0-1.867 0v6.86a.944.944 0 0 0 1.867 0zm4.494 0V8.438a.944.944 0 0 0-1.867 0v6.86a.944.944 0 0 0 1.867 0z"/>
</svg>
