<svg xmlns="http://www.w3.org/2000/svg" width="16.092" height="16.092" viewBox="0 0 16.092 16.092">
    <g data-name="Icon feather-download">
        <path data-name="Path 13673" d="M16.678 27.437H5.414A2.417 2.417 0 0 1 3 25.023V21.8a.8.8 0 1 1 1.609 0v3.218a.806.806 0 0 0 .8.8h11.269a.806.806 0 0 0 .8-.8V21.8a.8.8 0 1 1 1.609 0v3.218a2.417 2.417 0 0 1-2.409 2.419z" transform="translate(-3 -11.345)" style="fill:#9ca6ba"/>
        <path data-name="Path 13674" d="M13.828 19.132a.8.8 0 0 1-.569-.236l-4.023-4.022a.8.8 0 0 1 1.138-1.138l3.454 3.454 3.454-3.454a.8.8 0 0 1 1.138 1.138L14.4 18.9a.8.8 0 0 1-.572.232z" transform="translate(-5.782 -7.868)" style="fill:#9ca6ba"/>
        <path data-name="Path 13675" d="M17.3 14.264a.8.8 0 0 1-.8-.8V3.8a.8.8 0 0 1 1.609 0v9.66a.8.8 0 0 1-.809.804z" transform="translate(-9.259 -3)" style="fill:#9ca6ba"/>
    </g>
</svg>
