<svg xmlns="http://www.w3.org/2000/svg" width="20.727" height="19.236" viewBox="0 0 20.727 19.236">
    <path data-name="Path 85" d="M3.019 19.236h12.938a2.917 2.917 0 0 0 3.019-2.8v-6a.865.865 0 0 0-1.725 0v6a1.253 1.253 0 0 1-1.294 1.2H3.019a1.253 1.253 0 0 1-1.294-1.2V4.525a1.253 1.253 0 0 1 1.294-1.2h6.469a.831.831 0 0 0 .863-.8.831.831 0 0 0-.863-.8H3.019A2.917 2.917 0 0 0 0 4.525V16.44a2.917 2.917 0 0 0 3.019 2.8z"/>
    <path data-name="Path 86" d="m7.714 9.395-.708 3.245a.9.9 0 0 0 .243.827.932.932 0 0 0 .826.242l3.237-.71a.9.9 0 0 0 .444-.243l8.186-8.184a2.693 2.693 0 0 0 0-3.809 2.756 2.756 0 0 0-3.808 0L7.96 8.954a.9.9 0 0 0-.246.442zm9.685-7.362a.918.918 0 0 1 1.269 0 .906.906 0 0 1 0 1.269l-.635.635-1.268-1.27zm-7.99 8 6.082-6.1 1.257 1.263-6.084 6.1-1.612.354z"/>
</svg>
