<svg xmlns="http://www.w3.org/2000/svg" width="27.544" height="14.664" viewBox="0 0 27.544 14.664">
    <path d="M13.772 0A16.407 16.407 0 0 0 0 7.332a16.6 16.6 0 0 0 27.544 0A16.407 16.407 0 0 0 13.772 0zm0 12.751a5.6 5.6 0 0 1-5.755-5.419 5.6 5.6 0 0 1 5.755-5.419 5.6 5.6 0 0 1 5.755 5.419 5.6 5.6 0 0 1-5.755 5.419zm0-9.563a4.152 4.152 0 1 0 0 8.288 4.152 4.152 0 1 0 0-8.288zm0 2.55a1.739 1.739 0 0 0-1.066.367l-.237.223a1.524 1.524 0 0 0-.389 1 .678.678 0 0 1-1.354 0 2.966 2.966 0 0 1 3.047-2.869.639.639 0 1 1 0 1.275z"/>
</svg>
